# xmcd
#
# Track frame offsets: 
#        150
#        11300
#        30630
#        50187
#        64302
#        74500
#        91370
#        107640
#        123140
#        138350
#        152880
#        163412
#
# Disc length: 2461 seconds
#
# Revision: 4
# Processed by: cddbd v1.4PL0 Copyright (c) Steve Scherf et al.
# Submitted via: ExactAudioCopy v0.90b4
#
DISCID=a7099b0c
DTITLE=Julian Austin - What My Heart Already Knows
DYEAR=1997
DGENRE=Country
TTITLE0=Little Ol' Kisses
TTITLE1=Hard Time Loving You
TTITLE2=Two Out of Three Ain't Bad
TTITLE3=Honky Tonk Lock And Key
TTITLE4=Sad Ways Of A Fool
TTITLE5=What My Heart Already Knows
TTITLE6=Diamond
TTITLE7=Sister Ruby
TTITLE8=Dancing With Him
TTITLE9=Highway Song
TTITLE10=When You're Gone
TTITLE11=Loving You Was Never Right
EXTD=
EXTT0=
EXTT1=
EXTT2=
EXTT3=
EXTT4=
EXTT5=
EXTT6=
EXTT7=
EXTT8=
EXTT9=
EXTT10=
EXTT11=
PLAYORDER=
